<svg width="112" height="112" viewBox="0 0 112 112" fill="none" xmlns="http://www.w3.org/2000/svg">
<path d="M36.2747 0.702148C24.9159 0.702148 15.7543 5.14347 9.7807 11.8637C3.80712 18.584 0.936218 27.3462 0.936218 36.0406C0.936218 49.0617 3.26324 57.3535 5.76765 63.4122C8.27207 69.4709 10.4538 72.877 11.0822 77.1571C11.0822 77.1604 11.0822 77.1637 11.0822 77.167C11.964 83.1623 13.1073 90.9721 15.6376 97.8041C16.9027 101.22 18.4978 104.446 20.9719 107.102C23.4459 109.758 27.129 111.766 31.2264 111.766C37.5868 111.766 42.7421 108.3 45.6418 104.026C48.5415 99.7512 49.8876 94.8517 51.055 90.3006C52.2223 85.7495 53.2079 81.4698 54.3285 78.9517C54.8888 77.6926 55.4561 76.9503 55.7582 76.6838C56.0603 76.4174 55.9686 76.4275 56.4681 76.4275C56.9677 76.4275 56.876 76.4174 57.1781 76.6838C57.4801 76.9503 58.0475 77.6926 58.6078 78.9517C59.7284 81.4698 60.7139 85.7495 61.8813 90.3006C63.0487 94.8517 64.3948 99.7512 67.2945 104.026C70.1942 108.3 75.3495 111.766 81.7099 111.766C85.8073 111.766 89.4903 109.758 91.9644 107.102C94.4384 104.446 96.0335 101.22 97.2987 97.8041C99.829 90.9721 100.972 83.1623 101.854 77.167C101.854 77.1637 101.854 77.1604 101.854 77.1571C102.482 72.877 104.664 69.4709 107.169 63.4122C109.673 57.3537 112 49.0617 112 36.0406C112 27.3462 109.129 18.584 103.156 11.8637C97.182 5.14347 88.0204 0.702148 76.6616 0.702148C68.5281 0.702148 62.8138 2.07045 59.012 3.59115C57.2707 4.2877 57.2486 4.57057 56.2118 5.2575C53.267 3.88823 45.882 0.702148 36.2747 0.702148ZM36.2747 10.7989C44.6886 10.7989 54.2102 15.3148 54.2102 15.3148C55.158 15.7884 56.2308 15.9519 57.2766 15.782C58.3224 15.6121 59.2883 15.1175 60.0375 14.3682C60.0375 14.3682 60.2502 13.9617 62.7589 12.9582C65.2676 11.9547 69.6499 10.7989 76.6616 10.7989C85.4962 10.7989 91.4796 13.9301 95.6027 18.5686C99.7259 23.2071 101.903 29.59 101.903 36.0406C101.903 47.913 99.9848 54.3704 97.841 59.5569C95.6971 64.7434 92.8278 69.0785 91.8559 75.6978C90.981 81.6453 89.8049 88.9697 87.833 94.2939C86.8466 96.9574 85.6468 99.063 84.5693 100.22C83.4919 101.377 82.8729 101.669 81.7099 101.669C78.4355 101.669 77.2509 100.717 75.6558 98.3661C74.0608 96.0148 72.7612 92.0796 71.6625 87.7961C70.5638 83.5126 69.6649 78.9577 67.8368 74.8499C66.9228 72.796 65.752 70.7774 63.8632 69.1113C61.9744 67.4452 59.2399 66.3308 56.4681 66.3308C53.6963 66.3308 50.9619 67.4452 49.0731 69.1113C47.1843 70.7774 46.0135 72.796 45.0995 74.8499C43.2714 78.9577 42.3725 83.5126 41.2738 87.7961C40.175 92.0796 38.8755 96.0148 37.2804 98.3661C35.6854 100.717 34.5007 101.669 31.2264 101.669C30.0633 101.669 29.4444 101.377 28.3669 100.22C27.2895 99.063 26.0897 96.9574 25.1032 94.2939C23.1314 88.9697 21.9552 81.6453 21.0803 75.6978V75.688C20.1069 69.0749 17.238 64.7406 15.0953 59.5569C12.9514 54.3704 11.0329 47.913 11.0329 36.0406C11.0329 29.59 13.2104 23.2071 17.3335 18.5686C18.0212 17.795 18.845 17.1309 19.6408 16.4487L29.136 25.9439L22.6087 32.4713C21.5384 33.5415 21.0128 35.0391 21.1592 36.5435C21.3056 38.0429 22.1156 39.403 23.3777 40.241L38.5228 50.3377C39.3861 50.9132 40.354 51.1857 41.3132 51.1857C42.9438 51.1857 44.5491 50.3966 45.5235 48.9376C47.0682 46.6154 46.4405 43.4818 44.1233 41.937L34.1055 35.2617L39.8441 29.5133C41.818 27.5394 41.6413 24.7927 39.8441 22.3746L32.3208 11.0552C33.5778 10.9054 34.8794 10.7989 36.2747 10.7989Z" fill="#48CAE4"/>
</svg>
