<svg width="112" height="112" viewBox="0 0 112 112" fill="none" xmlns="http://www.w3.org/2000/svg">
<path d="M35.4449 0.702148C30.8619 0.702148 26.6562 1.44902 22.8536 2.75304C22.2692 2.861 21.7084 3.07129 21.1971 3.37423C21.1873 3.38077 21.1774 3.38734 21.1676 3.39395C16.292 5.35357 12.15 8.26476 8.95093 11.8637C2.97735 18.584 0.106445 27.3462 0.106445 36.0406C0.106445 38.4029 0.261905 40.443 0.402247 42.5088C0.25487 43.2784 0.288628 44.0717 0.500848 44.826C1.26669 52.9965 3.05055 58.8463 4.93788 63.4122C7.44229 69.4709 9.62402 72.877 10.2525 77.1571C10.2525 77.1604 10.2525 77.1637 10.2525 77.167C11.1343 83.1623 12.2775 90.9721 14.8078 97.8041C16.0729 101.22 17.668 104.446 20.1421 107.102C22.6162 109.758 26.2992 111.766 30.3966 111.766C36.757 111.766 41.9123 108.3 44.812 104.026C47.7117 99.7512 49.0578 94.8517 50.2252 90.3006C51.3925 85.7495 52.3781 81.4698 53.4987 78.9517C54.059 77.6926 54.6264 76.9503 54.9284 76.6838C55.2305 76.4174 55.1388 76.4275 55.6384 76.4275C56.1379 76.4275 56.0462 76.4174 56.3483 76.6838C56.6504 76.9503 57.2177 77.6926 57.778 78.9517C58.8986 81.4698 59.8842 85.7495 61.0515 90.3006C62.2189 94.8517 63.565 99.7512 66.4647 104.026C69.3644 108.3 74.5197 111.766 80.8801 111.766C84.9775 111.766 88.6605 109.758 91.1346 107.102C93.6087 104.446 95.2038 101.22 96.4689 97.8041C98.9992 90.9721 100.142 83.1623 101.024 77.167C101.024 77.1637 101.024 77.1604 101.024 77.1571C101.653 72.877 103.834 69.4709 106.339 63.4122C108.843 57.3537 111.17 49.0617 111.17 36.0406C111.17 27.3462 108.299 18.584 102.326 11.8637C96.3522 5.14347 87.1906 0.702148 75.8318 0.702148C67.6983 0.702148 61.984 2.07045 58.1823 3.59115C56.4409 4.2877 56.4189 4.57057 55.382 5.2575C52.4372 3.88823 45.0522 0.702148 35.4449 0.702148ZM35.4449 10.7989C43.8589 10.7989 53.3804 15.3148 53.3804 15.3148C54.3282 15.7884 55.401 15.9519 56.4468 15.782C57.4927 15.6121 58.4586 15.1175 59.2077 14.3682C59.2077 14.3682 59.4204 13.9617 61.9291 12.9582C64.4378 11.9547 68.8202 10.7989 75.8318 10.7989C84.6664 10.7989 90.6498 13.9301 94.773 18.5686C98.8961 23.2071 101.074 29.59 101.074 36.0406C101.074 47.913 99.1551 54.3704 97.0112 59.5569C94.8673 64.7434 91.998 69.0785 91.0261 75.6978C90.1513 81.6453 88.9751 88.9697 87.0032 94.2939C86.0168 96.9574 84.817 99.063 83.7396 100.22C82.6621 101.377 82.0431 101.669 80.8801 101.669C77.6058 101.669 76.4211 100.717 74.826 98.3661C73.231 96.0148 71.9314 92.0796 70.8327 87.7961C69.734 83.5126 68.8351 78.9577 67.007 74.8499C66.093 72.796 64.9222 70.7774 63.0334 69.1113C61.1446 67.4452 58.4102 66.3308 55.6384 66.3308C52.8666 66.3308 50.1321 67.4452 48.2433 69.1113C46.3545 70.7774 45.1837 72.796 44.2697 74.8499C42.4416 78.9577 41.5427 83.5126 40.444 87.7961C39.3453 92.0796 38.0457 96.0148 36.4507 98.3661C34.8556 100.717 33.6709 101.669 30.3966 101.669C29.2336 101.669 28.6146 101.377 27.5372 100.22C26.4597 99.063 25.2599 96.9574 24.2735 94.2939C22.3016 88.9697 21.1255 81.6453 20.2506 75.6978V75.688C19.2772 69.0749 16.4082 64.7406 14.2655 59.5569C13.2532 57.1079 12.3073 54.3221 11.5737 50.8702C12.7723 51.0568 13.9931 51.1857 15.2515 51.1857C29.132 51.1857 40.4933 39.8245 40.4933 25.9439C40.4933 20.2486 38.5269 15.0299 35.3168 10.8087C35.3611 10.8086 35.4004 10.7989 35.4449 10.7989ZM23.4945 13.3132C27.6474 16.0066 30.3966 20.6071 30.3966 25.9439C30.3966 34.367 23.6746 41.089 15.2515 41.089C13.5387 41.089 11.9316 40.6898 10.3708 40.1227C10.3112 38.7695 10.2032 37.5632 10.2032 36.0406C10.2032 29.59 12.3806 23.2071 16.5037 18.5686C18.4005 16.4348 20.714 14.651 23.4945 13.3132Z" fill="#48CAE4"/>
</svg>
