<svg width="112" height="112" viewBox="0 0 112 112" fill="none" xmlns="http://www.w3.org/2000/svg">
<path d="M35.6152 0.702148C24.2564 0.702148 15.0948 5.14347 9.12122 11.8637C3.14763 18.584 0.276733 27.3462 0.276733 36.0406C0.276733 49.0617 2.60375 57.3535 5.10817 63.4122C7.61258 69.4709 9.79431 72.877 10.4227 77.1571C10.4227 77.1604 10.4227 77.1637 10.4227 77.167C11.3046 83.1623 12.4478 90.9721 14.9781 97.8041C16.2432 101.22 17.8383 104.446 20.3124 107.102C22.7865 109.758 26.4695 111.766 30.5669 111.766C36.9273 111.766 42.0826 108.3 44.9823 104.026C47.882 99.7512 49.2281 94.8517 50.3955 90.3006C51.5628 85.7495 52.5484 81.4698 53.669 78.9517C54.2293 77.6926 54.7966 76.9503 55.0987 76.6838C55.4008 76.4174 55.3091 76.4275 55.8086 76.4275C56.3082 76.4275 56.2165 76.4174 56.5186 76.6838C56.8207 76.9503 57.388 77.6926 57.9483 78.9517C59.0689 81.4698 60.0545 85.7495 61.2218 90.3006C62.3892 94.8517 63.7353 99.7512 66.635 104.026C69.5347 108.3 74.69 111.766 81.0504 111.766C85.1478 111.766 88.8308 109.758 91.3049 107.102C93.779 104.446 95.3741 101.22 96.6392 97.8041C99.1695 90.9721 100.313 83.1623 101.195 77.167C101.195 77.1637 101.195 77.1604 101.195 77.1571C101.823 72.877 104.005 69.4709 106.509 63.4122C109.014 57.3537 111.341 49.0617 111.341 36.0406C111.341 27.3462 108.47 18.584 102.496 11.8637C96.5225 5.14347 87.3609 0.702148 76.0021 0.702148C67.8686 0.702148 62.1543 2.07045 58.3525 3.59115C56.6112 4.2877 56.5892 4.57057 55.5523 5.2575C52.6075 3.88823 45.2225 0.702148 35.6152 0.702148ZM35.6152 10.7989C44.0292 10.7989 53.5507 15.3148 53.5507 15.3148C54.4985 15.7884 55.5713 15.9519 56.6171 15.782C57.6629 15.6121 58.6288 15.1175 59.378 14.3682C59.378 14.3682 59.5907 13.9617 62.0994 12.9582C64.6081 11.9547 68.9905 10.7989 76.0021 10.7989C84.8367 10.7989 90.8201 13.9301 94.9433 18.5686C99.0664 23.2071 101.244 29.59 101.244 36.0406C101.244 47.913 99.3254 54.3704 97.1815 59.5569C95.0376 64.7434 92.1683 69.0785 91.1964 75.6978C90.3215 81.6453 89.1454 88.9697 87.1735 94.2939C86.1871 96.9574 84.9873 99.063 83.9098 100.22C82.8324 101.377 82.2134 101.669 81.0504 101.669C77.7761 101.669 76.5914 100.717 74.9963 98.3661C73.4013 96.0148 72.1017 92.0796 71.003 87.7961C69.9043 83.5126 69.0054 78.9577 67.1773 74.8499C66.2633 72.796 65.0925 70.7774 63.2037 69.1113C61.3149 67.4452 58.5804 66.3308 55.8086 66.3308C53.0368 66.3308 50.3024 67.4452 48.4136 69.1113C46.5248 70.7774 45.354 72.796 44.44 74.8499C42.6119 78.9577 41.713 83.5126 40.6143 87.7961C39.5156 92.0796 38.216 96.0148 36.6209 98.3661C35.0259 100.717 33.8412 101.669 30.5669 101.669C29.4039 101.669 28.7849 101.377 27.7074 100.22C26.63 99.063 25.4302 96.9574 24.4438 94.2939C22.4719 88.9697 21.2957 81.6453 20.4209 75.6978V75.688C19.4475 69.0749 16.5785 64.7406 14.4358 59.5569C12.6273 55.1818 11.0519 49.6914 10.5805 41.02C13.8839 44.2928 18.3442 46.1315 22.9943 46.1373C26.3039 46.1341 29.5461 45.2015 32.3515 43.4455C33.0622 44.2885 33.9483 44.9662 34.948 45.4311C35.9477 45.896 37.0369 46.1371 38.1394 46.1373C40.1478 46.1373 42.0739 45.3395 43.494 43.9194C44.9141 42.4993 45.7119 40.5732 45.7119 38.5648C45.7125 36.9523 45.1982 35.3817 44.2441 34.0817C43.2899 32.7817 41.9457 31.8203 40.4072 31.3374C40.5706 30.3895 40.6564 29.4299 40.6636 28.4681C40.6619 24.7243 39.4712 21.0778 37.2631 18.0546C35.055 15.0313 31.9437 12.7875 28.3779 11.6468C30.5582 11.1175 32.9394 10.7989 35.6152 10.7989Z" fill="#48CAE4"/>
</svg>
