<svg width="49" height="49" viewBox="0 0 49 49" fill="none" xmlns="http://www.w3.org/2000/svg">
<path d="M16.1739 0.695557C11.2826 0.695557 7.33747 2.60807 4.76514 5.50194C2.1928 8.39582 0.956543 12.169 0.956543 15.9129C0.956543 21.5201 1.9586 25.0906 3.03705 27.6996C4.11549 30.3086 5.05498 31.7754 5.3256 33.6185C5.3256 33.6199 5.3256 33.6213 5.3256 33.6227C5.70532 36.2044 6.19763 39.5674 7.28722 42.5094C7.83201 43.9804 8.51888 45.3695 9.58426 46.5133C10.6496 47.6571 12.2356 48.5216 14 48.5216C16.7389 48.5216 18.9589 47.0293 20.2076 45.1886C21.4562 43.3479 22.0359 41.2381 22.5386 39.2783C23.0413 37.3185 23.4657 35.4756 23.9482 34.3912C24.1895 33.849 24.4338 33.5294 24.5639 33.4146C24.694 33.2999 24.6545 33.3043 24.8696 33.3043C25.0847 33.3043 25.0452 33.2999 25.1753 33.4146C25.3054 33.5294 25.5497 33.849 25.791 34.3912C26.2735 35.4756 26.6979 37.3185 27.2006 39.2783C27.7033 41.2381 28.2829 43.3479 29.5316 45.1886C30.7803 47.0293 33.0002 48.5216 35.7392 48.5216C37.5036 48.5216 39.0895 47.6572 40.1549 46.5133C41.2203 45.3695 41.9072 43.9804 42.452 42.5094C43.5415 39.5674 44.0339 36.2044 44.4136 33.6227C44.4136 33.6213 44.4136 33.6199 44.4136 33.6185C44.6842 31.7754 45.6237 30.3086 46.7021 27.6996C47.7806 25.0907 48.7826 21.5201 48.7826 15.9129C48.7826 12.169 47.5464 8.39582 44.974 5.50194C42.4017 2.60807 38.4565 0.695557 33.5652 0.695557C30.0628 0.695557 27.6021 1.28477 25.965 1.93961C25.4031 2.1644 24.9476 2.41059 24.5511 2.64868C22.347 1.53327 19.5752 0.695557 16.1739 0.695557ZM16.1739 5.04338C24.4021 5.04338 27.3365 10.4824 27.3365 10.4824C27.4797 10.7295 27.6702 10.946 27.8972 11.1194C28.1241 11.2929 28.383 11.4199 28.659 11.4933C28.935 11.5667 29.2228 11.585 29.5059 11.5472C29.789 11.5093 30.0619 11.4161 30.309 11.2727C30.556 11.1294 30.7724 10.9388 30.9458 10.7118C31.1192 10.4849 31.2462 10.226 31.3195 9.9499C31.3928 9.67384 31.411 9.38605 31.373 9.10296C31.3351 8.81987 31.2418 8.54702 31.0984 8.30001C31.0984 8.30001 30.3112 7.06586 28.7504 5.5996C29.8693 5.29896 31.4191 5.04338 33.5652 5.04338C37.3696 5.04338 39.9462 6.39174 41.7217 8.38917C43.4972 10.3866 44.4348 13.1352 44.4348 15.9129C44.4348 21.0254 43.6087 23.8061 42.6855 26.0395C41.7623 28.2729 40.5267 30.1397 40.1082 32.9901C39.7315 35.5512 39.225 38.7052 38.3759 40.9979C37.9511 42.1448 37.4344 43.0515 36.9705 43.5497C36.5065 44.0478 36.24 44.1738 35.7392 44.1738C34.3292 44.1738 33.819 43.764 33.1322 42.7514C32.4453 41.7389 31.8857 40.0443 31.4126 38.1998C30.9394 36.3553 30.5523 34.3938 29.7651 32.6249C29.3715 31.7404 28.8674 30.8712 28.054 30.1538C27.3438 29.5273 26.3535 29.1017 25.3197 28.9989C25.1715 28.9691 25.0207 28.9549 24.8696 28.9564C24.7171 28.9546 24.5648 28.9688 24.4153 28.9989C23.383 29.1025 22.3944 29.5281 21.6851 30.1538C20.8718 30.8712 20.3676 31.7404 19.974 32.6249C19.1868 34.3938 18.7997 36.3553 18.3266 38.1998C17.8535 40.0443 17.2939 41.7389 16.607 42.7514C15.9202 43.764 15.41 44.1738 14 44.1738C13.4992 44.1738 13.2327 44.0478 12.7687 43.5497C12.3047 43.0515 11.7881 42.1448 11.3633 40.9979C10.5142 38.7052 10.0077 35.5512 9.63097 32.9901V32.9858C9.2118 30.1381 7.97638 28.2717 7.05369 26.0395C6.1305 23.8061 5.30437 21.0254 5.30437 15.9129C5.30437 13.1352 6.24202 10.3866 8.01751 8.38917C9.79301 6.39174 12.3696 5.04338 16.1739 5.04338Z" fill="#2457C5"/>
</svg>
