<svg width="95" height="49" viewBox="0 0 95 49" fill="none" xmlns="http://www.w3.org/2000/svg">
<path d="M16.1739 0.695557C11.2826 0.695557 7.33747 2.60807 4.76514 5.50194C2.1928 8.39582 0.956543 12.169 0.956543 15.9129C0.956543 21.5201 1.9586 25.0906 3.03705 27.6996C4.11549 30.3086 5.05498 31.7754 5.3256 33.6185C5.3256 33.6199 5.3256 33.6213 5.3256 33.6227C5.70532 36.2044 6.19763 39.5674 7.28722 42.5094C7.83201 43.9804 8.51888 45.3695 9.58426 46.5133C10.6496 47.6571 12.2356 48.5216 14 48.5216C16.7389 48.5216 18.9589 47.0293 20.2076 45.1886C21.4562 43.3479 22.0359 41.2381 22.5386 39.2783C23.0413 37.3185 23.4657 35.4756 23.9482 34.3912C24.1895 33.849 24.4338 33.5294 24.5639 33.4146C24.694 33.2999 24.6545 33.3043 24.8696 33.3043C25.0847 33.3043 25.0452 33.2999 25.1753 33.4146C25.3054 33.5294 25.5497 33.849 25.791 34.3912C26.2735 35.4756 26.6979 37.3185 27.2006 39.2783C27.7033 41.2381 28.2829 43.3479 29.5316 45.1886C30.7803 47.0293 33.0002 48.5216 35.7392 48.5216C37.5036 48.5216 39.0895 47.6572 40.1549 46.5133C41.2203 45.3695 41.9072 43.9804 42.452 42.5094C43.5415 39.5674 44.0339 36.2044 44.4136 33.6227C44.4136 33.6213 44.4136 33.6199 44.4136 33.6185C44.6842 31.7754 45.6237 30.3086 46.7021 27.6996C47.7806 25.0907 48.7826 21.5201 48.7826 15.9129C48.7826 12.169 47.5464 8.39582 44.974 5.50194C42.4017 2.60807 38.4565 0.695557 33.5652 0.695557C30.0628 0.695557 27.6021 1.28477 25.965 1.93961C25.4031 2.1644 24.9476 2.41059 24.5511 2.64868C22.347 1.53327 19.5752 0.695557 16.1739 0.695557ZM16.1739 5.04338C24.4021 5.04338 27.3365 10.4824 27.3365 10.4824C27.4797 10.7295 27.6702 10.946 27.8972 11.1194C28.1241 11.2929 28.383 11.4199 28.659 11.4933C28.935 11.5667 29.2228 11.585 29.5059 11.5472C29.789 11.5093 30.0619 11.4161 30.309 11.2727C30.556 11.1294 30.7724 10.9388 30.9458 10.7118C31.1192 10.4849 31.2462 10.226 31.3195 9.9499C31.3928 9.67384 31.411 9.38605 31.373 9.10296C31.3351 8.81987 31.2418 8.54702 31.0984 8.30001C31.0984 8.30001 30.3112 7.06586 28.7504 5.5996C29.8693 5.29896 31.4191 5.04338 33.5652 5.04338C37.3696 5.04338 39.9462 6.39174 41.7217 8.38917C43.4972 10.3866 44.4348 13.1352 44.4348 15.9129C44.4348 21.0254 43.6087 23.8061 42.6855 26.0395C41.7623 28.2729 40.5267 30.1397 40.1082 32.9901C39.7315 35.5512 39.225 38.7052 38.3759 40.9979C37.9511 42.1448 37.4344 43.0515 36.9705 43.5497C36.5065 44.0478 36.24 44.1738 35.7392 44.1738C34.3292 44.1738 33.819 43.764 33.1322 42.7514C32.4453 41.7389 31.8857 40.0443 31.4126 38.1998C30.9394 36.3553 30.5523 34.3938 29.7651 32.6249C29.3715 31.7404 28.8674 30.8712 28.054 30.1538C27.3438 29.5273 26.3535 29.1017 25.3197 28.9989C25.1715 28.9691 25.0207 28.9549 24.8696 28.9564C24.7171 28.9546 24.5648 28.9688 24.4153 28.9989C23.383 29.1025 22.3944 29.5281 21.6851 30.1538C20.8718 30.8712 20.3676 31.7404 19.974 32.6249C19.1868 34.3938 18.7997 36.3553 18.3266 38.1998C17.8535 40.0443 17.2939 41.7389 16.607 42.7514C15.9202 43.764 15.41 44.1738 14 44.1738C13.4992 44.1738 13.2327 44.0478 12.7687 43.5497C12.3047 43.0515 11.7881 42.1448 11.3633 40.9979C10.5142 38.7052 10.0077 35.5512 9.63097 32.9901V32.9858C9.2118 30.1381 7.97638 28.2717 7.05369 26.0395C6.1305 23.8061 5.30437 21.0254 5.30437 15.9129C5.30437 13.1352 6.24202 10.3866 8.01751 8.38917C9.79301 6.39174 12.3696 5.04338 16.1739 5.04338Z" fill="#2457C5"/>
<path d="M9.58057 13.0717C9.58057 13.0564 9.53466 13.0258 9.44283 12.9798C9.36631 12.9186 9.27448 12.8651 9.16735 12.8191C9.07553 12.7579 8.97605 12.6967 8.86892 12.6355C8.77709 12.5743 8.70822 12.5284 8.66231 12.4978C8.53987 12.3753 8.40979 12.2299 8.27205 12.0616C8.13431 11.8932 8.06544 11.5948 8.06544 11.1663C8.06544 10.8755 8.119 10.7071 8.22613 10.6612C8.34857 10.6153 8.471 10.6077 8.59344 10.6383C8.70057 10.6689 8.86127 10.7224 9.07553 10.799C9.30509 10.8755 9.54231 10.975 9.78718 11.0974C10.032 11.2045 10.2693 11.327 10.4988 11.4647C10.7284 11.5871 10.912 11.7019 11.0498 11.8091C11.4324 11.7172 11.792 11.6484 12.1287 11.6024C12.4654 11.5412 12.8404 11.5106 13.2536 11.5106C14.3708 11.5106 15.3733 11.7019 16.2609 12.0845C17.1486 12.4518 17.8985 12.9722 18.5107 13.6456C19.1228 14.319 19.5896 15.1224 19.911 16.056C20.2324 16.9743 20.3931 17.9844 20.3931 19.0863C20.3931 20.1576 20.1712 21.1524 19.7274 22.0706C19.2835 22.9736 18.702 23.7541 17.9827 24.4122C17.2634 25.0703 16.4522 25.583 15.5493 25.9503C14.6463 26.3176 13.7357 26.5012 12.8174 26.5012C12.4042 26.5012 12.144 26.4553 12.0369 26.3635C11.9298 26.2564 11.8762 26.1645 11.8762 26.088C11.8762 25.9503 11.9374 25.8278 12.0599 25.7207C12.1976 25.6136 12.3736 25.5064 12.5879 25.3993C12.8021 25.2922 13.0394 25.1851 13.2995 25.0779C13.575 24.9708 13.8428 24.856 14.103 24.7336C14.5468 24.5499 14.9907 24.2897 15.4345 23.9531C15.8936 23.6164 16.2992 23.2108 16.6512 22.7364C17.0185 22.2466 17.3169 21.6957 17.5465 21.0835C17.776 20.4713 17.8908 19.7979 17.8908 19.0633C17.8908 18.3134 17.799 17.5941 17.6154 16.9054C17.447 16.2167 17.1639 15.6122 16.766 15.0918C16.368 14.5715 15.8324 14.1583 15.159 13.8522C14.4856 13.5461 13.6592 13.3931 12.6797 13.3931C12.2665 13.3931 11.8533 13.416 11.44 13.4619C11.4707 14.2884 11.486 15.1071 11.486 15.9183C11.5013 16.7294 11.5089 17.5482 11.5089 18.3746C11.5089 19.2011 11.4936 19.9357 11.463 20.5784C11.4477 21.2059 11.4018 21.864 11.3253 22.5527C11.2947 22.8588 11.2411 23.2414 11.1646 23.7005C11.088 24.1444 10.9886 24.5805 10.8661 25.0091C10.759 25.4376 10.6289 25.8125 10.4759 26.1339C10.3381 26.44 10.1774 26.616 9.99379 26.6619C9.90196 26.6925 9.77953 26.5854 9.62648 26.3405C9.47344 26.0957 9.351 25.8202 9.25918 25.5141C9.28979 25.2386 9.3204 24.9478 9.351 24.6417C9.39692 24.3357 9.43518 23.9913 9.46579 23.6087C9.4964 23.2108 9.51935 22.7593 9.53466 22.2543C9.56527 21.7492 9.58057 21.16 9.58057 20.4866V13.0717ZM26.3342 26.7308C25.5383 26.7155 24.842 26.5395 24.2451 26.2028C23.6636 25.8508 23.1891 25.407 22.8218 24.8713C22.4545 24.3204 22.202 23.7158 22.0643 23.0577C21.9265 22.3844 21.9036 21.7263 21.9954 21.0835C22.0872 20.3795 22.2785 19.7367 22.5693 19.1551C22.8754 18.5736 23.258 18.0838 23.7171 17.6859C24.1763 17.288 24.7119 16.9896 25.3241 16.7906C25.9363 16.5764 26.602 16.4922 27.3213 16.5381C27.9335 16.584 28.4462 16.7447 28.8594 17.0202C29.2726 17.2957 29.6093 17.6094 29.8695 17.9614C30.1296 18.3134 30.3209 18.6654 30.4434 19.0174C30.5658 19.3694 30.6423 19.6372 30.6729 19.8209C30.826 19.9433 30.9561 20.104 31.0632 20.303C31.1703 20.5019 31.2239 20.6397 31.2239 20.7162C31.178 20.9457 30.8643 21.1217 30.2827 21.2442C30.0531 21.2901 29.6705 21.3437 29.1349 21.4049C28.5992 21.4661 28.0176 21.5273 27.3902 21.5885C26.778 21.6497 26.1735 21.6957 25.5766 21.7263C24.995 21.7569 24.5436 21.7645 24.2222 21.7492C24.1916 22.04 24.1916 22.3691 24.2222 22.7364C24.2528 23.1037 24.3446 23.4557 24.4976 23.7924C24.6507 24.1137 24.8803 24.3892 25.1863 24.6188C25.4924 24.8484 25.9056 24.9708 26.426 24.9861C26.7627 25.0167 27.1223 24.9937 27.5049 24.9172C27.9029 24.8407 28.1783 24.7718 28.3314 24.7106C28.9129 24.5117 29.3338 24.351 29.594 24.2285C29.8542 24.1061 30.0378 24.1061 30.1449 24.2285C30.2368 24.3204 30.2215 24.527 30.099 24.8484C29.9919 25.1697 29.7088 25.5141 29.2496 25.8814C28.7905 26.2334 28.2931 26.463 27.7575 26.5701C27.2218 26.6772 26.7474 26.7308 26.3342 26.7308ZM28.6757 19.775C28.6298 19.5454 28.538 19.3158 28.4003 19.0863C28.2778 18.8414 28.1095 18.6348 27.8952 18.4664C27.6963 18.2828 27.459 18.1451 27.1836 18.0532C26.9234 17.9614 26.6403 17.9461 26.3342 18.0073C26.0434 18.0532 25.7832 18.1604 25.5536 18.3287C25.3394 18.4971 25.1481 18.696 24.9797 18.9256C24.8114 19.1551 24.6736 19.4 24.5665 19.6602C24.4594 19.9204 24.3829 20.1729 24.3369 20.4178C25.1634 20.2953 25.9209 20.1805 26.6096 20.0734C27.2983 19.9663 27.987 19.8668 28.6757 19.775ZM34.8379 18.2598C34.9298 18.1221 35.0599 17.992 35.2282 17.8696C35.4119 17.7471 35.6032 17.64 35.8021 17.5482C36.0164 17.4564 36.2383 17.3875 36.4679 17.3416C36.6974 17.2804 36.904 17.2498 37.0877 17.2498C38.3273 17.2498 39.2609 17.6553 39.8884 18.4664C40.5312 19.2776 40.8526 20.5172 40.8526 22.1854C40.8526 22.568 40.8296 22.9583 40.7837 23.3562C40.7531 23.7541 40.7301 24.1597 40.7148 24.5729C40.7148 24.9861 40.7301 25.3917 40.7607 25.7896C40.8066 26.1875 40.9061 26.5777 41.0592 26.9604C41.1051 27.0522 41.151 27.1517 41.1969 27.2588C41.2581 27.3812 41.3117 27.496 41.3576 27.6031C41.4035 27.7256 41.4265 27.8327 41.4265 27.9245C41.4265 28.0164 41.3882 28.0929 41.3117 28.1541C41.2505 28.2 41.1586 28.2153 41.0362 28.2C40.9138 28.2 40.7837 28.1771 40.6459 28.1311C40.5082 28.1005 40.3705 28.0623 40.2327 28.0164C40.1103 27.9704 40.0185 27.9245 39.9572 27.8786C39.6818 27.695 39.4599 27.4348 39.2915 27.0981C39.1385 26.7614 39.0237 26.3864 38.9472 25.9732C38.8706 25.5447 38.8247 25.1085 38.8094 24.6647C38.7941 24.2056 38.7865 23.7694 38.7865 23.3562C38.7865 22.8817 38.7635 22.4226 38.7176 21.9788C38.6717 21.5197 38.5799 21.1141 38.4421 20.7621C38.3044 20.3948 38.1054 20.0964 37.8452 19.8668C37.6004 19.6219 37.279 19.4765 36.8811 19.4306C36.5903 19.4 36.2536 19.423 35.871 19.4995C35.5037 19.5607 35.1823 19.752 34.9068 20.0734C34.9068 20.8998 34.8992 21.7339 34.8839 22.5757C34.8686 23.4021 34.8456 24.2515 34.815 25.1238C34.7997 25.5677 34.7385 25.9809 34.6313 26.3635C34.5242 26.7308 34.3865 27.0522 34.2181 27.3277C34.0651 27.6184 33.8891 27.8404 33.6901 27.9934C33.5065 28.1617 33.3152 28.2459 33.1162 28.2459C32.9938 28.2459 32.9172 28.0929 32.8866 27.7868C32.856 27.4807 32.8407 27.1211 32.8407 26.7078C32.856 26.3099 32.8713 25.9044 32.8866 25.4911C32.9172 25.0779 32.9326 24.7565 32.9326 24.527C32.9326 23.6087 32.9402 22.6522 32.9555 21.6574C32.9861 20.6473 32.9632 19.5684 32.8866 18.4205C32.6724 18.2828 32.4734 18.1144 32.2898 17.9155C32.1214 17.7165 32.0066 17.487 31.9454 17.2268C31.9301 17.1656 31.9225 17.0891 31.9225 16.9972C31.9225 16.8901 31.9301 16.7906 31.9454 16.6988C31.9607 16.607 31.9837 16.5304 32.0143 16.4692C32.0602 16.3927 32.1214 16.3544 32.1979 16.3544C32.2745 16.3544 32.3663 16.3698 32.4734 16.4004C32.5806 16.431 32.68 16.4616 32.7719 16.4922C32.879 16.5381 33.0091 16.5917 33.1621 16.6529C33.3152 16.7141 33.4682 16.783 33.6212 16.8595C33.7743 16.9207 33.9197 16.9896 34.0574 17.0661C34.2105 17.1426 34.3329 17.2115 34.4247 17.2727C34.5625 17.3798 34.6619 17.5099 34.7232 17.663C34.7997 17.8007 34.8379 17.9844 34.8379 18.2139V18.2598Z" fill="#3757C0"/>
<path d="M48.5072 30.1284C48.5072 29.654 48.4766 29.279 48.4153 29.0036C48.3694 28.7281 48.2393 28.445 48.0251 28.1542C47.9792 28.1083 47.9486 28.0394 47.9333 27.9476C47.9333 27.8404 47.9409 27.7333 47.9562 27.6262C47.9715 27.519 48.0021 27.4196 48.048 27.3277C48.094 27.2359 48.1475 27.167 48.2087 27.1211C48.3312 27.0599 48.5148 27.0829 48.7597 27.19C49.0046 27.2818 49.2494 27.4119 49.4943 27.5803C49.7545 27.7333 49.984 27.9017 50.183 28.0853C50.382 28.2537 50.5044 28.3837 50.5503 28.4756C50.688 28.6439 50.7569 28.8199 50.7569 29.0036C50.6804 29.279 50.6345 29.5239 50.6192 29.7382C50.6192 29.9371 50.6192 30.1743 50.6192 30.4498V30.9778C50.9712 30.9319 51.3155 30.886 51.6522 30.8401C51.9889 30.7789 52.3333 30.7177 52.6853 30.6564C52.7771 30.6411 52.8766 30.6411 52.9837 30.6564C53.1061 30.6717 53.2209 30.7023 53.328 30.7483C53.4352 30.7789 53.527 30.8248 53.6035 30.886C53.68 30.9319 53.7183 30.9778 53.7183 31.0237C53.7183 31.1462 53.68 31.2839 53.6035 31.437C53.5423 31.5747 53.4505 31.7124 53.328 31.8502C53.2209 31.9726 53.0985 32.0797 52.9607 32.1716C52.8383 32.2634 52.7235 32.3093 52.6164 32.3093C52.1726 32.3093 51.744 32.3323 51.3308 32.3782L50.6192 32.447V35.4773C50.6192 36.013 50.6268 36.5563 50.6421 37.1072C50.6574 37.6429 50.7187 38.1403 50.8258 38.5994C50.9329 39.0432 51.1089 39.4105 51.3538 39.7013C51.5987 39.9768 51.9507 40.1145 52.4098 40.1145C52.5169 40.1145 52.6317 40.1069 52.7541 40.0916C52.8919 40.0763 53.0143 40.0686 53.1214 40.0686C53.2439 40.0533 53.3433 40.061 53.4199 40.0916C53.5117 40.1069 53.5576 40.1528 53.5576 40.2293C53.5576 40.2905 53.527 40.3747 53.4658 40.4818C53.4199 40.589 53.3357 40.7037 53.2133 40.8262C53.1061 40.9333 52.9531 41.0328 52.7541 41.1246C52.5705 41.2317 52.3486 41.3006 52.0884 41.3312C51.5068 41.4077 50.9482 41.3389 50.4126 41.1246C49.8922 40.9103 49.502 40.6119 49.2418 40.2293C48.8745 39.709 48.6602 39.0815 48.599 38.3469C48.5378 37.6123 48.5072 36.6863 48.5072 35.5691V32.6766C48.2929 32.6919 48.0787 32.6996 47.8644 32.6996C47.6501 32.6996 47.4206 32.6996 47.1757 32.6996C47.0839 32.6996 46.9614 32.6766 46.8084 32.6307C46.6707 32.5848 46.5329 32.5236 46.3952 32.447C46.2574 32.3552 46.135 32.2557 46.0279 32.1486C45.936 32.0415 45.8901 31.9267 45.8901 31.8043C45.9054 31.7124 45.936 31.6206 45.982 31.5288C46.0432 31.4217 46.0967 31.3604 46.1427 31.3451C46.2804 31.3451 46.4258 31.3451 46.5788 31.3451C46.7319 31.3298 46.8849 31.3145 47.038 31.2992L48.5072 31.1385V30.1284ZM58.9904 41.0787C58.1946 41.0634 57.4982 40.8874 56.9014 40.5507C56.3198 40.1987 55.8454 39.7549 55.4781 39.2192C55.1108 38.6683 54.8582 38.0637 54.7205 37.4057C54.5828 36.7323 54.5598 36.0742 54.6516 35.4314C54.7435 34.7274 54.9348 34.0846 55.2255 33.503C55.5316 32.9215 55.9142 32.4317 56.3734 32.0338C56.8325 31.6359 57.3682 31.3375 57.9803 31.1385C58.5925 30.9243 59.2582 30.8401 59.9775 30.886C60.5897 30.9319 61.1024 31.0926 61.5156 31.3681C61.9288 31.6436 62.2655 31.9573 62.5257 32.3093C62.7859 32.6613 62.9772 33.0133 63.0996 33.3653C63.2221 33.7173 63.2986 33.9851 63.3292 34.1688C63.4822 34.2912 63.6123 34.4519 63.7195 34.6509C63.8266 34.8498 63.8802 34.9876 63.8802 35.0641C63.8342 35.2937 63.5205 35.4697 62.9389 35.5921C62.7094 35.638 62.3268 35.6916 61.7911 35.7528C61.2555 35.814 60.6739 35.8752 60.0464 35.9364C59.4342 35.9977 58.8297 36.0436 58.2328 36.0742C57.6513 36.1048 57.1998 36.1124 56.8784 36.0971C56.8478 36.3879 56.8478 36.717 56.8784 37.0843C56.909 37.4516 57.0008 37.8036 57.1539 38.1403C57.3069 38.4617 57.5365 38.7371 57.8426 38.9667C58.1487 39.1963 58.5619 39.3187 59.0822 39.334C59.4189 39.3646 59.7786 39.3417 60.1612 39.2651C60.5591 39.1886 60.8346 39.1197 60.9876 39.0585C61.5692 38.8596 61.9901 38.6989 62.2502 38.5764C62.5104 38.454 62.6941 38.454 62.8012 38.5764C62.893 38.6683 62.8777 38.8749 62.7553 39.1963C62.6481 39.5177 62.365 39.862 61.9059 40.2293C61.4468 40.5813 60.9494 40.8109 60.4137 40.918C59.8781 41.0251 59.4036 41.0787 58.9904 41.0787ZM61.332 34.1229C61.2861 33.8933 61.1942 33.6637 61.0565 33.4342C60.9341 33.1893 60.7657 32.9827 60.5515 32.8143C60.3525 32.6307 60.1153 32.493 59.8398 32.4011C59.5796 32.3093 59.2965 32.294 58.9904 32.3552C58.6996 32.4011 58.4395 32.5083 58.2099 32.6766C57.9956 32.845 57.8043 33.0439 57.636 33.2735C57.4676 33.503 57.3299 33.7479 57.2228 34.0081C57.1156 34.2683 57.0391 34.5208 56.9932 34.7657C57.8196 34.6432 58.5772 34.5284 59.2659 34.4213C59.9546 34.3142 60.6433 34.2147 61.332 34.1229ZM69.1011 41.0787C68.3053 41.0634 67.609 40.8874 67.0121 40.5507C66.4305 40.1987 65.9561 39.7549 65.5888 39.2192C65.2215 38.6683 64.969 38.0637 64.8312 37.4057C64.6935 36.7323 64.6705 36.0742 64.7624 35.4314C64.8542 34.7274 65.0455 34.0846 65.3363 33.503C65.6424 32.9215 66.025 32.4317 66.4841 32.0338C66.9432 31.6359 67.4789 31.3375 68.0911 31.1385C68.7032 30.9243 69.369 30.8401 70.0883 30.886C70.7004 30.9319 71.2131 31.0926 71.6264 31.3681C72.0396 31.6436 72.3763 31.9573 72.6364 32.3093C72.8966 32.6613 73.0879 33.0133 73.2104 33.3653C73.3328 33.7173 73.4093 33.9851 73.4399 34.1688C73.593 34.2912 73.7231 34.4519 73.8302 34.6509C73.9373 34.8498 73.9909 34.9876 73.9909 35.0641C73.945 35.2937 73.6312 35.4697 73.0497 35.5921C72.8201 35.638 72.4375 35.6916 71.9018 35.7528C71.3662 35.814 70.7846 35.8752 70.1571 35.9364C69.545 35.9977 68.9404 36.0436 68.3436 36.0742C67.762 36.1048 67.3105 36.1124 66.9891 36.0971C66.9585 36.3879 66.9585 36.717 66.9891 37.0843C67.0198 37.4516 67.1116 37.8036 67.2646 38.1403C67.4177 38.4617 67.6472 38.7371 67.9533 38.9667C68.2594 39.1963 68.6726 39.3187 69.193 39.334C69.5297 39.3646 69.8893 39.3417 70.2719 39.2651C70.6698 39.1886 70.9453 39.1197 71.0984 39.0585C71.6799 38.8596 72.1008 38.6989 72.361 38.5764C72.6211 38.454 72.8048 38.454 72.9119 38.5764C73.0038 38.6683 72.9884 38.8749 72.866 39.1963C72.7589 39.5177 72.4758 39.862 72.0166 40.2293C71.5575 40.5813 71.0601 40.8109 70.5244 40.918C69.9888 41.0251 69.5144 41.0787 69.1011 41.0787ZM71.4427 34.1229C71.3968 33.8933 71.305 33.6637 71.1672 33.4342C71.0448 33.1893 70.8764 32.9827 70.6622 32.8143C70.4632 32.6307 70.226 32.493 69.9505 32.4011C69.6904 32.3093 69.4072 32.294 69.1011 32.3552C68.8104 32.4011 68.5502 32.5083 68.3206 32.6766C68.1064 32.845 67.9151 33.0439 67.7467 33.2735C67.5784 33.503 67.4406 33.7479 67.3335 34.0081C67.2264 34.2683 67.1498 34.5208 67.1039 34.7657C67.9304 34.6432 68.6879 34.5284 69.3766 34.4213C70.0653 34.3142 70.754 34.2147 71.4427 34.1229ZM76.7096 30.1284C76.7096 29.654 76.679 29.279 76.6178 29.0036C76.5719 28.7281 76.4418 28.445 76.2275 28.1542C76.1816 28.1083 76.151 28.0394 76.1357 27.9476C76.1357 27.8404 76.1434 27.7333 76.1587 27.6262C76.174 27.519 76.2046 27.4196 76.2505 27.3277C76.2964 27.2359 76.35 27.167 76.4112 27.1211C76.5336 27.0599 76.7173 27.0829 76.9621 27.19C77.207 27.2818 77.4519 27.4119 77.6967 27.5803C77.9569 27.7333 78.1865 27.9017 78.3854 28.0853C78.5844 28.2537 78.7068 28.3837 78.7527 28.4756C78.8905 28.6439 78.9594 28.8199 78.9594 29.0036C78.8828 29.279 78.8369 29.5239 78.8216 29.7382C78.8216 29.9371 78.8216 30.1743 78.8216 30.4498V30.9778C79.1736 30.9319 79.518 30.886 79.8547 30.8401C80.1914 30.7789 80.5357 30.7177 80.8877 30.6564C80.9795 30.6411 81.079 30.6411 81.1861 30.6564C81.3086 30.6717 81.4234 30.7023 81.5305 30.7483C81.6376 30.7789 81.7294 30.8248 81.806 30.886C81.8825 30.9319 81.9207 30.9778 81.9207 31.0237C81.9207 31.1462 81.8825 31.2839 81.806 31.437C81.7447 31.5747 81.6529 31.7124 81.5305 31.8502C81.4234 31.9726 81.3009 32.0797 81.1632 32.1716C81.0407 32.2634 80.926 32.3093 80.8188 32.3093C80.375 32.3093 79.9465 32.3323 79.5333 32.3782L78.8216 32.447V35.4773C78.8216 36.013 78.8293 36.5563 78.8446 37.1072C78.8599 37.6429 78.9211 38.1403 79.0282 38.5994C79.1354 39.0432 79.3114 39.4105 79.5562 39.7013C79.8011 39.9768 80.1531 40.1145 80.6122 40.1145C80.7194 40.1145 80.8341 40.1069 80.9566 40.0916C81.0943 40.0763 81.2167 40.0686 81.3239 40.0686C81.4463 40.0533 81.5458 40.061 81.6223 40.0916C81.7141 40.1069 81.7601 40.1528 81.7601 40.2293C81.7601 40.2905 81.7294 40.3747 81.6682 40.4818C81.6223 40.589 81.5381 40.7037 81.4157 40.8262C81.3086 40.9333 81.1555 41.0328 80.9566 41.1246C80.7729 41.2317 80.551 41.3006 80.2908 41.3312C79.7093 41.4077 79.1507 41.3389 78.615 41.1246C78.0947 40.9103 77.7044 40.6119 77.4442 40.2293C77.0769 39.709 76.8627 39.0815 76.8014 38.3469C76.7402 37.6123 76.7096 36.6863 76.7096 35.5691V32.6766C76.4954 32.6919 76.2811 32.6996 76.0668 32.6996C75.8526 32.6996 75.623 32.6996 75.3781 32.6996C75.2863 32.6996 75.1639 32.6766 75.0108 32.6307C74.8731 32.5848 74.7354 32.5236 74.5976 32.447C74.4599 32.3552 74.3374 32.2557 74.2303 32.1486C74.1385 32.0415 74.0926 31.9267 74.0926 31.8043C74.1079 31.7124 74.1385 31.6206 74.1844 31.5288C74.2456 31.4217 74.2992 31.3604 74.3451 31.3451C74.4828 31.3451 74.6282 31.3451 74.7813 31.3451C74.9343 31.3298 75.0874 31.3145 75.2404 31.2992L76.7096 31.1385V30.1284ZM84.0478 27.2818C84.0478 27.1135 83.9866 27.0293 83.8642 27.0293C83.7264 27.0293 83.5351 27.0293 83.2902 27.0293C83.0607 27.014 82.8541 26.9834 82.6704 26.9375C82.4868 26.8916 82.3337 26.7997 82.2113 26.662C82.0889 26.5243 82.0276 26.4324 82.0276 26.3865C82.0276 26.2794 82.1118 26.1646 82.2802 26.0422C82.4485 25.9197 82.5862 25.8279 82.6934 25.7667C83.0607 25.583 83.4816 25.407 83.956 25.2387C84.4457 25.0703 84.8513 24.9862 85.1727 24.9862C85.2645 24.9862 85.3563 25.0244 85.4482 25.101C85.5553 25.1775 85.6471 25.2693 85.7236 25.3764C85.8155 25.4683 85.8843 25.5677 85.9302 25.6749C85.9915 25.7667 86.0221 25.8432 86.0221 25.9044V31.6206C86.2822 31.3145 86.6496 31.039 87.124 30.7942C87.6137 30.5493 88.1264 30.4269 88.6621 30.4269C89.1824 30.4269 89.6722 30.5187 90.1313 30.7023C90.6057 30.8707 91.0113 31.1462 91.348 31.5288C91.7 31.9114 91.9755 32.4088 92.1744 33.021C92.3887 33.6331 92.4958 34.3754 92.4958 35.2477C92.4958 35.6763 92.4805 36.1507 92.4499 36.671C92.4193 37.1914 92.3963 37.7194 92.381 38.255C92.381 38.7907 92.3963 39.3263 92.4269 39.862C92.4729 40.3823 92.5647 40.8568 92.7024 41.2853C92.7789 41.4843 92.8708 41.6985 92.9779 41.9281C93.085 42.173 93.0774 42.3566 92.9549 42.479C92.8937 42.525 92.8019 42.5403 92.6795 42.525C92.557 42.525 92.4269 42.502 92.2892 42.4561C92.1515 42.4255 92.0137 42.3872 91.876 42.3413C91.7536 42.2954 91.6617 42.2495 91.6005 42.2036C91.2944 42.0046 91.0572 41.7291 90.8889 41.3771C90.7358 41.0251 90.621 40.6425 90.5445 40.2293C90.468 39.8161 90.4221 39.3876 90.4068 38.9437C90.4068 38.4999 90.4068 38.079 90.4068 37.6811C90.4221 36.7323 90.3915 35.9517 90.3149 35.3396C90.2537 34.7274 90.1389 34.2377 89.9706 33.8703C89.8176 33.4877 89.6186 33.2123 89.3737 33.0439C89.1289 32.8603 88.8381 32.7302 88.5014 32.6537C88.1494 32.5771 87.7209 32.6001 87.2158 32.7225C86.7261 32.8297 86.3282 33.0363 86.0221 33.3423V37.1531C86.0221 37.903 85.9609 38.5535 85.8384 39.1044C85.7313 39.6554 85.5859 40.1145 85.4022 40.4818C85.2339 40.8491 85.0426 41.117 84.8283 41.2853C84.6294 41.4537 84.4381 41.5225 84.2544 41.4919C84.1473 41.4766 84.0784 41.3236 84.0478 41.0328C84.0172 40.742 84.0019 40.39 84.0019 39.9768C84.0019 39.5483 84.0096 39.1044 84.0249 38.6453C84.0402 38.1862 84.0478 37.773 84.0478 37.4057V27.2818Z" fill="#3757C0"/>
</svg>
